<svg width="21" height="21" viewBox="0 0 21 21" fill="none" xmlns="http://www.w3.org/2000/svg">
<path d="M10.6414 14.0957C9.71318 14.0957 8.82294 13.727 8.16657 13.0706C7.51019 12.4142 7.14144 11.524 7.14144 10.5957C7.14144 9.66745 7.51019 8.77721 8.16657 8.12083C8.82294 7.46445 9.71318 7.0957 10.6414 7.0957C11.5697 7.0957 12.4599 7.46445 13.1163 8.12083C13.7727 8.77721 14.1414 9.66745 14.1414 10.5957C14.1414 11.524 13.7727 12.4142 13.1163 13.0706C12.4599 13.727 11.5697 14.0957 10.6414 14.0957ZM18.0714 11.5657C18.1114 11.2457 18.1414 10.9257 18.1414 10.5957C18.1414 10.2657 18.1114 9.9357 18.0714 9.5957L20.1814 7.9657C20.3714 7.8157 20.4214 7.5457 20.3014 7.3257L18.3014 3.8657C18.1814 3.6457 17.9114 3.5557 17.6914 3.6457L15.2014 4.6457C14.6814 4.2557 14.1414 3.9157 13.5114 3.6657L13.1414 1.0157C13.1014 0.775703 12.8914 0.595703 12.6414 0.595703H8.64144C8.39144 0.595703 8.18144 0.775703 8.14144 1.0157L7.77144 3.6657C7.14144 3.9157 6.60144 4.2557 6.08144 4.6457L3.59144 3.6457C3.37144 3.5557 3.10144 3.6457 2.98144 3.8657L0.981441 7.3257C0.851441 7.5457 0.911441 7.8157 1.10144 7.9657L3.21144 9.5957C3.17144 9.9357 3.14144 10.2657 3.14144 10.5957C3.14144 10.9257 3.17144 11.2457 3.21144 11.5657L1.10144 13.2257C0.911441 13.3757 0.851441 13.6457 0.981441 13.8657L2.98144 17.3257C3.10144 17.5457 3.37144 17.6257 3.59144 17.5457L6.08144 16.5357C6.60144 16.9357 7.14144 17.2757 7.77144 17.5257L8.14144 20.1757C8.18144 20.4157 8.39144 20.5957 8.64144 20.5957H12.6414C12.8914 20.5957 13.1014 20.4157 13.1414 20.1757L13.5114 17.5257C14.1414 17.2657 14.6814 16.9357 15.2014 16.5357L17.6914 17.5457C17.9114 17.6257 18.1814 17.5457 18.3014 17.3257L20.3014 13.8657C20.4214 13.6457 20.3714 13.3757 20.1814 13.2257L18.0714 11.5657Z" fill="black"/>
</svg>
